C:\GBW_MyPrograms\KinderuniversiteitApp\Resultaten\TymenKool\Model3_v1.mot
version=1
nRows=12
nColumns=31
inDegrees=yes
endheader
                time	         pelvis_tilt	           pelvis_tx	           pelvis_ty	       hip_flexion_r	        knee_angle_r	       ankle_angle_r	       hip_flexion_l	        knee_angle_l	       ankle_angle_l	    lumbar_extension	          arm_flex_r	          arm_flex_l	hamstrings_r/activation	bifemsh_r/activation	glut_max_r/activation	iliopsoas_r/activation	rect_fem_r/activation	  vasti_r/activation	gastroc_r/activation	 soleus_r/activation	tib_ant_r/activation	hamstrings_l/activation	bifemsh_l/activation	glut_max_l/activation	iliopsoas_l/activation	rect_fem_l/activation	  vasti_l/activation	gastroc_l/activation	 soleus_l/activation	tib_ant_l/activation	
          0.10000049	         -1.90605206	          0.13313000	          0.72187455	        -35.98578193	        -11.51801300	          6.74279752	         -3.20507414	          8.88769837	         14.57908065	         -9.23260800	        -52.58528020	        -52.58528020	          0.27038404	          0.48750115	          0.15217150	          0.19169325	          0.17247659	          0.29747158	          0.12035332	          0.23092440	          0.56210666	          0.36123782	          0.42770429	          0.10717067	          0.41443220	          0.60562148	          0.18661543	          0.27304802	          0.19937853	          0.20647225	
          0.10200050	         -1.88889102	          0.12440913	          0.83222106	        -30.92114196	        -12.00745639	          6.99240490	         -3.52888908	         10.31157448	         13.77275002	         -9.27769102	        -52.49829734	        -52.49829734	          0.33409019	          0.45884916	          0.23139429	          0.17169986	          0.15275216	          0.36809109	          0.19791144	          0.29835284	          0.53152277	          0.42006761	          0.47452485	          0.19627933	          0.38594945	          0.56683785	          0.16179114	          0.33269411	          0.17392509	          0.28844500	
          0.10400051	         -1.85085655	          0.11404630	          0.85080983	        -23.11806029	         -9.86111536	          7.50995046	         -3.26654283	         11.35105205	         12.57980474	         -9.32251161	        -52.40779354	        -52.40779354	          0.30556008	          0.44210212	          0.29707807	          0.23295138	          0.19424405	          0.34679992	          0.25966311	          0.29466484	          0.56704359	          0.39376690	          0.46027035	          0.17555126	          0.44358637	          0.59139367	          0.22333174	          0.31401726	          0.24183248	          0.29916102	
          0.10600052	         -1.83968855	          0.10178278	          0.86137884	         -7.73846836	          8.72530227	          7.71194897	         -4.14075273	          9.44586689	         11.35585202	         -9.36997728	        -52.32950419	        -52.32950419	          0.28698969	          0.41780950	          0.35110755	          0.22161505	          0.22568236	          0.39648350	          0.32245839	          0.35040794	          0.54807896	          0.38891229	          0.44440518	          0.15904283	          0.42900708	          0.57568707	          0.22094298	          0.29585208	          0.29681218	          0.28635253	
          0.10800053	         -1.87534632	          0.08734048	          0.86879777	         -4.71754217	         -9.61246397	          7.93885837	         -3.98484539	         11.25666994	         10.52644208	         -9.43076966	        -52.22338358	        -52.22338358	          0.34861624	          0.39891215	          0.40994702	          0.20602059	          0.20922088	          0.37462184	          0.38353012	          0.40704843	          0.51028187	          0.42986384	          0.42443638	          0.23587595	          0.40844641	          0.55068454	          0.28437576	          0.27636837	          0.32569486	          0.26867797	
          0.11000054	         -1.95080785	          0.07040801	          0.86300131	         -2.52957784	        -15.80956134	          8.51908383	         -3.15551558	         10.08217235	          9.91324080	         -9.49840900	        -52.12813510	        -52.12813510	          0.40296783	          0.44478587	          0.39323405	          0.27110961	          0.19558767	          0.34740402	          0.41632918	          0.45217046	          0.47538500	          0.41684355	          0.40600715	          0.24100768	          0.39775711	          0.52794536	          0.33677155	          0.25933955	          0.31196766	          0.33511600	
          0.11200055	         -1.99816619	          0.05059733	          0.87108519	          0.13298945	        -17.95650845	          9.02790980	         -3.05773726	         11.56127081	         10.03514600	         -9.55906899	        -52.02992417	        -52.02992417	          0.45125964	          0.48299834	          0.38858951	          0.25980679	          0.18339694	          0.32142263	          0.40488532	          0.48868636	          0.44366844	          0.43066599	          0.38904745	          0.29548656	          0.38297963	          0.50444750	          0.38363383	          0.25074120	          0.32530725	          0.38970916	
          0.11400056	         -2.16993627	          0.02740402	          0.85916769	          1.35978533	        -20.94662596	         10.34448397	         -3.78272099	         10.28550401	         10.43929817	         -9.61780636	        -51.94023209	        -51.94023209	          0.48772388	          0.51242057	          0.37316163	          0.28923310	          0.23521897	          0.29652292	          0.40122658	          0.52034323	          0.41139308	          0.41763341	          0.37627019	          0.27709776	          0.44017730	          0.47966502	          0.41363703	          0.25905496	          0.34223853	          0.43545145	
          0.11600057	         -2.32354760	          0.00022451	          0.85667881	          1.83876058	        -23.23640004	         11.20839220	         -5.15657992	         10.44804437	         11.04050065	         -9.67178716	        -51.86672856	        -51.86672856	          0.52544217	          0.49877707	          0.42731133	          0.27072671	          0.22452515	          0.27245946	          0.38174176	          0.52093970	          0.38107903	          0.45671294	          0.36708443	          0.27021244	          0.43785596	          0.45658125	          0.43453911	          0.29774126	          0.37064040	          0.46900582	
          0.11800058	         -2.44069439	         -0.03170482	          0.85271090	          2.46859599	        -24.66410059	         11.79680742	         -5.53559341	          9.68001275	         11.86241924	         -9.72330472	        -51.81139566	        -51.81139566	          0.51976313	          0.48259475	          0.46554700	          0.25501691	          0.28934529	          0.24991270	          0.35792543	          0.49125338	          0.35343683	          0.44223726	          0.38261679	          0.24940852	          0.48946519	          0.43363856	          0.42496387	          0.34338302	          0.39205763	          0.44727279	
          0.12000059	         -2.55323213	         -0.06944546	          0.85780328	          3.40212655	        -24.67273855	         12.09010618	         -5.73750647	          4.01361251	         12.80882894	         -9.75988813	        -51.75524898	        -51.75524898	          0.50196331	          0.46302941	          0.50308993	          0.23918552	          0.34953845	          0.23321021	          0.33188364	          0.45825733	          0.32778921	          0.42522240	          0.41600845	          0.23040913	          0.53421302	          0.40966623	          0.41080614	          0.39066558	          0.40082861	          0.42040803	
          0.12200060	         -2.66642381	         -0.11458906	          0.85615897	          3.00092435	        -24.95758454	         12.39816024	         -5.82785377	         -9.77975037	         13.40024156	         -9.78756923	        -51.68803460	        -51.68803460	          0.47981433	          0.44237774	          0.53597018	          0.22320732	          0.40410599	          0.24435409	          0.30517101	          0.42725677	          0.30445572	          0.40534434	          0.45119050	          0.21072416	          0.57458280	          0.38532329	          0.39436431	          0.43073976	          0.38262381	          0.39365703	
